<svg width="145" height="138" viewBox="0 0 145 138" fill="none" xmlns="http://www.w3.org/2000/svg">
<path d="M133.31 0.000897362H114.604V13.7239H130.971V34.3065C130.971 44.9281 125.177 54.744 115.773 60.0548C106.368 65.3657 94.781 65.3657 85.3765 60.0548C75.9724 54.744 70.1774 44.9281 70.1774 34.3065V13.7239H86.5443L86.546 0.000897362H67.84C64.7395 0.000897362 61.7661 1.20535 59.5724 3.34945C57.3804 5.49514 56.149 8.40339 56.149 11.4362V34.3065C56.1604 44.6329 59.9329 54.6179 66.7877 62.4718C73.6428 70.3254 83.1334 75.5357 93.5588 77.166V93.7699C93.4691 104.023 87.9838 113.505 79.0444 118.862C70.1067 124.219 58.9769 124.693 49.597 120.118C40.2171 115.541 33.9086 106.559 32.9069 96.354C39.7603 93.3628 44.7315 87.3357 46.268 80.1503C47.806 72.9649 45.7233 65.4941 40.6689 60.0668C35.6159 54.6396 28.2063 51.9148 20.7496 52.741C13.2912 53.5673 6.69373 57.846 3.00941 64.2415C-0.673368 70.637 -0.99466 78.3742 2.14824 85.0413C5.28952 91.708 11.5135 96.494 18.8772 97.9075C20.0808 113.079 29.3105 126.529 43.2081 133.366C57.1074 140.204 73.6489 139.432 86.8196 131.331C99.9882 123.231 107.867 108.982 107.589 93.769V77.1651C118.014 75.5347 127.504 70.3245 134.36 62.4709C141.216 54.6174 144.987 44.632 145 34.3056V11.4353C145 8.40258 143.767 5.49428 141.575 3.34855C139.383 1.20445 136.41 0 133.309 0L133.31 0.000897362ZM14.0621 75.4731C14.0621 73.0467 15.0472 70.719 16.8021 69.0041C18.5555 67.2891 20.9351 66.324 23.4142 66.324C25.8949 66.324 28.2747 67.2891 30.028 69.0041C31.7829 70.719 32.768 73.0466 32.768 75.4731C32.768 77.8996 31.7829 80.2257 30.028 81.9422C28.2746 83.6572 25.895 84.6207 23.4142 84.6207C20.9351 84.6207 18.5554 83.6572 16.8021 81.9422C15.0472 80.2257 14.0621 77.8997 14.0621 75.4731Z" fill="#00856F"/>
</svg>
